<svg xmlns="http://www.w3.org/2000/svg" width="19" height="19" viewBox="0 0 19 19">
  <path id="Path_57832" data-name="Path 57832" d="M7.125,9.5a4.75,4.75,0,1,0-4.75-4.75A4.75,4.75,0,0,0,7.125,9.5Zm0-7.917A3.167,3.167,0,1,1,3.958,4.75,3.167,3.167,0,0,1,7.125,1.583ZM14.25,18.208a.792.792,0,0,1-1.583,0,5.542,5.542,0,1,0-11.083,0,.792.792,0,0,1-1.583,0,7.125,7.125,0,1,1,14.25,0Zm4.518-6.893a.792.792,0,1,1-1.12,1.12l-1.419-1.42L14.81,12.435a.792.792,0,1,1-1.12-1.12L15.11,9.9,13.69,8.476a.792.792,0,1,1,1.12-1.12l1.419,1.42,1.419-1.419a.792.792,0,1,1,1.12,1.12L17.349,9.9Z" fill="#fff"/>
</svg>
