<svg id="fi-rr-alarm-clock" xmlns="http://www.w3.org/2000/svg" width="18.996" height="19" viewBox="0 0 18.996 19">
  <path id="Path_57819" data-name="Path 57819" d="M10.748,1.623V.792a.792.792,0,0,0-1.583,0v.832A8.691,8.691,0,0,0,3.372,15.969,2.394,2.394,0,0,0,2.041,18.2a.792.792,0,0,0,1.583,0,.95.95,0,0,1,.879-.973.738.738,0,0,0,.158-.049,8.646,8.646,0,0,0,10.6,0,.818.818,0,0,0,.144.051.95.95,0,0,1,.885.971.792.792,0,0,0,1.583,0,2.394,2.394,0,0,0-1.331-2.235A8.691,8.691,0,0,0,10.748,1.623ZM2.833,10.29a7.124,7.124,0,1,1,7.124,7.124A7.124,7.124,0,0,1,2.833,10.29Z" transform="translate(-0.458 0.003)" fill="#fff"/>
  <path id="Path_57820" data-name="Path 57820" d="M23.556,0a.792.792,0,0,0,0,1.583,2.05,2.05,0,0,1,2.2,1.979.792.792,0,1,0,1.583,0A3.641,3.641,0,0,0,23.556,0Z" transform="translate(-8.347 0.005)" fill="#fff"/>
  <path id="Path_57821" data-name="Path 57821" d="M1.583,3.56a2.05,2.05,0,0,1,2.2-1.979A.792.792,0,0,0,3.787,0,3.641,3.641,0,0,0,0,3.56a.792.792,0,1,0,1.583,0Z" transform="translate(0 0.005)" fill="#fff"/>
  <path id="Path_57822" data-name="Path 57822" d="M15.33,11.92V8.29a.792.792,0,0,0-1.583,0v3.958a.791.791,0,0,0,.232.559l2.375,2.375a.791.791,0,1,0,1.119-1.119Z" transform="translate(-5.041 -2.746)" fill="#fff"/>
</svg>
