<svg xmlns="http://www.w3.org/2000/svg" width="19.222" height="22.061" viewBox="0 0 19.222 22.061">
  <g id="fire" transform="translate(-31.836)">
    <g id="Group_89163" data-name="Group 89163" transform="translate(31.836 0)">
      <path id="Path_13897" data-name="Path 13897" d="M40.025,21.05A7.1,7.1,0,0,1,45.3,9.231a7.033,7.033,0,0,1,3.341.838,14.384,14.384,0,0,0-2.088-6.533l-3.8,2.93V0c-4.71,2.518-7.5,5.725-7.431,10.99L31.836,7.6v4.837c-.05,4.964,2.8,9.314,7.927,9.276a8.711,8.711,0,0,0,.913-.028A7.223,7.223,0,0,1,40.025,21.05Z" transform="translate(-31.836 0)" fill="#40a76a"/>
      <path id="Path_13898" data-name="Path 13898" d="M286.91,337.14a.65.65,0,0,0-.464.192l-1.146,1.146-1.146-1.146a.657.657,0,1,0-.928.929l2.075,2.074,2.074-2.074A.658.658,0,0,0,286.91,337.14Z" transform="translate(-271.831 -322.105)" fill="#40a76a"/>
      <path id="Path_13899" data-name="Path 13899" d="M213.056,237.467l.016-.025-.058,0a5.729,5.729,0,1,0,.042.022Zm.284,5.839-3.02,3.02-3.021-3.02a1.994,1.994,0,0,1,2.821-2.82l.2.2.2-.2a1.994,1.994,0,0,1,2.82,2.821Z" transform="translate(-196.851 -226.205)" fill="#40a76a"/>
    </g>
  </g>
</svg>
