<svg xmlns="http://www.w3.org/2000/svg" viewBox="0 0 24 24"><path d="M7,12a5,5,0,1,1,5,5A5,5,0,0,1,7,12Zm5-7a1,1,0,0,0,1-1V3a1,1,0,0,0-2,0V4A1,1,0,0,0,12,5ZM11,20v1a1,1,0,0,0,2,0V20a1,1,0,0,0-2,0Zm10-9H20a1,1,0,0,0,0,2h1a1,1,0,0,0,0-2ZM3,13H4a1,1,0,0,0,0-2H3a1,1,0,0,0,0,2ZM17.657,7.343a1,1,0,0,0,.707-.293l.707-.707a1,1,0,1,0-1.414-1.414l-.707.707a1,1,0,0,0,.707,1.707ZM5.636,16.95l-.707.707a1,1,0,1,0,1.414,1.414l.707-.707A1,1,0,0,0,5.636,16.95Zm11.314,0a1,1,0,0,0,0,1.414l.707.707a1,1,0,0,0,1.414-1.414l-.707-.707A1,1,0,0,0,16.95,16.95ZM5.636,7.05A1,1,0,0,0,7.05,5.636l-.707-.707A1,1,0,0,0,4.929,6.343Z"/></svg>