<svg xmlns="http://www.w3.org/2000/svg" width="18.999" height="19" viewBox="0 0 18.999 19">
  <path id="Path_57818" data-name="Path 57818" d="M18.349,10.745a2.229,2.229,0,0,0-3.148,0L11.126,14.81a.742.742,0,0,0-.186.31l-.887,2.921a.742.742,0,0,0,.908.931l3-.83a.744.744,0,0,0,.326-.19l4.066-4.058a2.229,2.229,0,0,0,0-3.149Zm-4.977,6.019-1.507.417.441-1.452,2.749-2.743,1.05,1.05Zm3.927-3.92-.144.144-1.05-1.05.143-.143a.742.742,0,0,1,1.05,1.049ZM8.5,18.257A.742.742,0,0,1,7.757,19H2.97A2.972,2.972,0,0,1,0,16.03V2.968A2.972,2.972,0,0,1,2.97,0h9.125a2.972,2.972,0,0,1,2.969,2.969V8.683a.742.742,0,0,1-1.484,0V2.968a1.486,1.486,0,0,0-1.484-1.484H2.97A1.486,1.486,0,0,0,1.485,2.968V16.03A1.486,1.486,0,0,0,2.97,17.514H7.757A.742.742,0,0,1,8.5,18.257ZM12.1,5.528a.742.742,0,0,1-.742.742H9.167a.742.742,0,1,1,0-1.484h2.189A.742.742,0,0,1,12.1,5.528ZM7.624,4l-1.732,2.1a1.3,1.3,0,0,1-.918.475l-.085,0A1.3,1.3,0,0,1,4,6.216l-.02-.02-.8-.818A.742.742,0,1,1,4.244,4.343l.633.65,1.6-1.941A.742.742,0,0,1,7.624,4Zm3.732,6.838H9.167a.742.742,0,0,1,0-1.484h2.189a.742.742,0,0,1,0,1.484ZM7.624,8.557l-1.732,2.1a1.3,1.3,0,0,1-.918.475l-.085,0A1.3,1.3,0,0,1,4,10.775l-.019-.018-.8-.813A.742.742,0,1,1,4.242,8.905l.634.647,1.6-1.941a.742.742,0,0,1,1.144.945Zm0,4.49-1.732,2.1a1.3,1.3,0,0,1-.918.475l-.085,0A1.3,1.3,0,0,1,4,15.265l-.019-.018-.8-.813A.742.742,0,1,1,4.242,13.4l.634.647L6.48,12.1a.742.742,0,0,1,1.144.945Zm0,0" transform="translate(-0.001 0.001)" fill="#fff"/>
</svg>
