<?xml version="1.0" encoding="UTF-8"?>
<svg viewBox="0 0 19 18.984" xmlns="http://www.w3.org/2000/svg">
<path d="M.007 9.5a.791.791 0 0 1 .791-.791h3.226a5.4 5.4 0 0 1 .344-1.269L1.573 5.816a.791.791 0 1 1 .791-1.37l2.8 1.621a5.606 5.606 0 0 1 .911-.906l-1.622-2.8a.791.791 0 0 1 1.37-.791l1.621 2.793a5.461 5.461 0 0 1 1.263-.342V.791a.791.791 0 1 1 1.583 0v3.23a5.461 5.461 0 0 1 1.266.343l1.62-2.8a.791.791 0 0 1 1.37.791l-1.622 2.8a5.67 5.67 0 0 1 .912.905l2.795-1.62a.791.791 0 0 1 .791 1.37l-2.783 1.625a5.5 5.5 0 0 1 .349 1.277l3.22-.006a.791.791 0 1 1 0 1.583H14.98a1.583 1.583 0 0 1-1.561-1.354 3.964 3.964 0 0 0-7.835 0 1.583 1.583 0 0 1-1.56 1.354H.796A.791.791 0 0 1 .007 9.5Zm18.79 3.611a.791.791 0 0 0-1.118-.06 1.752 1.752 0 0 1-2.691-.647.774.774 0 0 0-.475-.486.791.791 0 0 0-1.006.482 1.81 1.81 0 0 1-3.268 0 .777.777 0 0 0-.475-.487.791.791 0 0 0-1.01.483 1.81 1.81 0 0 1-3.267 0 .777.777 0 0 0-.48-.479.791.791 0 0 0-1.01.483 1.741 1.741 0 0 1-2.682.651.791.791 0 0 0-1.048 1.178 3.3 3.3 0 0 0 4.486-.169 3.414 3.414 0 0 0 4.749 0 3.413 3.413 0 0 0 4.749 0 3.3 3.3 0 0 0 4.486.169.791.791 0 0 0 .06-1.119Zm0 3.957a.791.791 0 0 0-1.118-.06 1.752 1.752 0 0 1-2.691-.647.774.774 0 0 0-.475-.486.791.791 0 0 0-1.009.482 1.81 1.81 0 0 1-3.268 0 .777.777 0 0 0-.475-.487.791.791 0 0 0-1.01.483 1.81 1.81 0 0 1-3.267 0 .777.777 0 0 0-.477-.487.791.791 0 0 0-1.01.483A1.741 1.741 0 0 1 1.318 17a.792.792 0 1 0-1.051 1.186 3.3 3.3 0 0 0 4.486-.169 3.414 3.414 0 0 0 4.749 0 3.413 3.413 0 0 0 4.749 0 3.3 3.3 0 0 0 4.486.169.791.791 0 0 0 .06-1.119Z" fill="#fff" data-name="Path 50119"/>
</svg>
